<?xml version="1.0" encoding="UTF-8" standalone="no"?>
<!-- Created with Inkscape (http://www.inkscape.org/) -->

<svg
   xmlns:dc="http://purl.org/dc/elements/1.1/"
   xmlns:cc="http://creativecommons.org/ns#"
   xmlns:rdf="http://www.w3.org/1999/02/22-rdf-syntax-ns#"
   xmlns:svg="http://www.w3.org/2000/svg"
   xmlns="http://www.w3.org/2000/svg"
   xmlns:sodipodi="http://sodipodi.sourceforge.net/DTD/sodipodi-0.dtd"
   xmlns:inkscape="http://www.inkscape.org/namespaces/inkscape"
   width="47.18494mm"
   height="30.580509mm"
   viewBox="0 0 47.18494 30.580509"
   version="1.1"
   id="svg5124"
   inkscape:version="0.92.4 (unknown)"
   sodipodi:docname="logo.svg"
   inkscape:export-filename="/media/psf/Home/proj/oss/jet/logo/logo-300dpi.png"
   inkscape:export-xdpi="300.38654"
   inkscape:export-ydpi="300.38654">
  <defs
     id="defs5118" />
  <sodipodi:namedview
     id="base"
     pagecolor="#ffffff"
     bordercolor="#666666"
     borderopacity="1.0"
     inkscape:pageopacity="1"
     inkscape:pageshadow="2"
     inkscape:zoom="4.9362959"
     inkscape:cx="76.353324"
     inkscape:cy="57.789915"
     inkscape:document-units="mm"
     inkscape:current-layer="layer1"
     showgrid="false"
     fit-margin-top="1"
     fit-margin-left="1"
     fit-margin-right="1"
     fit-margin-bottom="1"
     inkscape:window-width="1454"
     inkscape:window-height="1233"
     inkscape:window-x="0"
     inkscape:window-y="0"
     inkscape:window-maximized="1" />
  <metadata
     id="metadata5121">
    <rdf:RDF>
      <cc:Work
         rdf:about="">
        <dc:format>image/svg+xml</dc:format>
        <dc:type
           rdf:resource="http://purl.org/dc/dcmitype/StillImage" />
        <dc:title></dc:title>
      </cc:Work>
    </rdf:RDF>
  </metadata>
  <g
     inkscape:label="Layer 1"
     inkscape:groupmode="layer"
     id="layer1"
     transform="translate(-70.145625,-161.51332)">
    <path
       id="path954-7-4"
       style="font-style:normal;font-variant:normal;font-weight:normal;font-stretch:normal;font-size:28.22222137px;line-height:1.25;font-family:'Meie Script';-inkscape-font-specification:'Meie Script, Normal';font-variant-ligatures:normal;font-variant-caps:normal;font-variant-numeric:normal;font-feature-settings:normal;text-align:start;letter-spacing:0px;word-spacing:0px;writing-mode:lr-tb;text-anchor:start;fill:#557dd1;fill-opacity:1;stroke:none;stroke-width:0.465;stroke-miterlimit:4;stroke-dasharray:none"
       d="m 94.337075,168.46644 q 0,0.23427 -0.12402,0.44098 -0.12403,0.2067 -0.33073,0.35829 -0.19293,0.15158 -0.45476,0.24804 -0.26182,0.0827 -0.52365,0.0827 -0.19293,0 -0.38585,-0.0413 -0.17915,-0.0413 -0.34451,-0.15158 -0.15158,-0.11024 -0.24805,-0.28939 -0.0965,-0.19292 -0.0965,-0.48231 0,-0.24805 0.1378,-0.42719 0.13781,-0.17915 0.34451,-0.28939 0.20671,-0.11024 0.46854,-0.16537 0.26182,-0.0551 0.50987,-0.0551 0.41341,0 0.68902,0.19293 0.28939,0.17914 0.35829,0.57877 z m -7.60677,9.75651 q -0.41341,0.48232 -0.81304,0.92329 -0.38585,0.42719 -0.78549,0.8406 1.68121,-0.7717 3.47266,-1.43316 1.79145,-0.67523 3.7207,-1.21267 l 0.13781,0.33073 q -0.73036,0.19293 -1.65365,0.50987 -0.92328,0.31695 -1.97059,0.73036 -1.03353,0.41342 -2.1773,0.90951 -1.12999,0.49609 -2.30133,1.04731 -2.52181,2.78364 -4.29948,4.85069 -1.77766,2.06706 -2.89388,3.25217 -0.39963,0.41341 -0.8406,0.79926 -0.45475,0.38586 -0.96463,0.67524 -0.50987,0.28939 -1.06108,0.46854 -0.565,0.17914 -1.15756,0.17914 -0.2756,0 -0.53743,-0.0689 -0.26183,-0.0551 -0.46853,-0.20671 -0.20671,-0.1378 -0.33073,-0.37207 -0.12403,-0.22048 -0.12403,-0.53743 0,-0.38585 0.28939,-0.93707 0.28939,-0.53743 0.86816,-1.18511 0.565,-0.6339 1.41938,-1.35048 0.84061,-0.7028 1.9706,-1.43316 1.22645,-0.81304 2.56315,-1.62608 1.32292,-0.81304 2.78364,-1.59853 l 4.68533,-5.70507 q 0.26182,-0.30317 0.60633,-0.71658 0.34451,-0.41342 0.73036,-0.85439 0.39963,-0.45475 0.79927,-0.88194 0.41341,-0.42719 0.7717,-0.7717 0.37207,-0.34451 0.66146,-0.55122 0.28938,-0.22049 0.45475,-0.22049 0.11024,0 0.30317,0.0413 0.19292,0.0413 0.37207,0.12402 0.19292,0.0689 0.31695,0.19292 0.1378,0.11025 0.1378,0.24805 0,0.15159 -0.20671,0.38585 -0.19292,0.23427 -0.48231,0.55122 l -2.28754,2.59071 q -0.0965,0.0965 -0.28939,0.31695 -0.19293,0.2067 -0.44097,0.48231 -0.23427,0.27561 -0.4961,0.59256 -0.26182,0.31695 -0.48231,0.62011 z m -11.27235,10.66602 q 0.52365,-0.52365 1.15755,-1.21267 0.62012,-0.68902 1.32292,-1.50206 0.68901,-0.79927 1.43316,-1.69499 0.73036,-0.88195 1.48828,-1.81901 -1.2678,0.68902 -2.45291,1.41938 -1.18511,0.73036 -2.20486,1.44694 -1.03353,0.73036 -1.86035,1.43316 -0.82683,0.71658 -1.36426,1.37803 -0.23427,0.27561 -0.39963,0.60634 -0.17915,0.34451 -0.17915,0.66146 0,0.27561 0.19293,0.45475 0.17914,0.17915 0.66146,0.17915 0.22048,0 0.50987,-0.12403 0.27561,-0.11024 0.565,-0.30316 0.28938,-0.17915 0.57877,-0.4272 0.28939,-0.23426 0.55122,-0.49609 z"
       inkscape:connector-curvature="0" />
    <path
       id="path956-2-0"
       style="font-style:normal;font-variant:normal;font-weight:normal;font-stretch:normal;font-size:28.22222137px;line-height:1.25;font-family:'Meie Script';-inkscape-font-specification:'Meie Script, Normal';font-variant-ligatures:normal;font-variant-caps:normal;font-variant-numeric:normal;font-feature-settings:normal;text-align:start;letter-spacing:0px;word-spacing:0px;writing-mode:lr-tb;text-anchor:start;fill:#557dd1;fill-opacity:1;stroke:none;stroke-width:0.465;stroke-miterlimit:4;stroke-dasharray:none"
       d="m 101.4202,178.14027 q -1.763895,0.81305 -2.949015,1.2678 -1.18511,0.45475 -2.02571,0.68902 -0.82682,0.22048 -1.43316,0.2756 -0.60634,0.0551 -1.22646,0.0551 -0.48231,0 -0.92328,-0.12403 -0.42719,-0.12402 -0.75792,-0.38585 -0.33073,-0.26183 -0.52366,-0.67524 -0.19292,-0.41341 -0.19292,-0.99218 0,-0.66146 0.27561,-1.36426 0.28938,-0.71658 0.78548,-1.39182 0.49609,-0.68902 1.15755,-1.29536 0.67524,-0.60633 1.46072,-1.06109 0.78548,-0.46853 1.63987,-0.73036 0.86816,-0.2756 1.73632,-0.2756 0.30317,0 0.71658,0.0551 0.41341,0.0551 0.78549,0.22048 0.372075,0.15159 0.633895,0.4272 0.26183,0.2756 0.26183,0.7028 0,0.38585 -0.35829,0.79926 -0.3583,0.41341 -0.964635,0.8406 -0.59255,0.41341 -1.37803,0.82682 -0.78549,0.41341 -1.62609,0.79927 -0.82682,0.37207 -1.66743,0.7028 -0.8406,0.33072 -1.55718,0.57877 -0.0276,0.11024 -0.0276,0.22049 0,0.11024 0,0.22048 0,0.52366 0.34451,0.86817 0.34451,0.34451 0.95085,0.34451 0.53743,0 1.06109,-0.0413 0.52365,-0.0413 1.25401,-0.22049 0.73036,-0.19293 1.77767,-0.57878 1.04731,-0.39963 2.632045,-1.08865 z m -3.169495,-5.15386 q -0.35829,0 -0.79926,0.20671 -0.44098,0.19292 -0.92329,0.53743 -0.48231,0.33073 -0.96463,0.78548 -0.46853,0.45475 -0.89572,0.97841 -0.41341,0.50987 -0.74414,1.06109 -0.33073,0.53743 -0.4961,1.06109 0.60634,-0.22049 1.25402,-0.48232 0.66146,-0.26182 1.28157,-0.55121 0.6339,-0.28939 1.1989,-0.60634 0.56499,-0.33073 0.99219,-0.68902 0.42719,-0.35829 0.67523,-0.73036 0.24805,-0.38585 0.24805,-0.79926 0,-0.33073 -0.17914,-0.55121 -0.16537,-0.22049 -0.64768,-0.22049 z"
       inkscape:connector-curvature="0" />
    <path
       id="path958-8-6"
       style="font-style:normal;font-variant:normal;font-weight:normal;font-stretch:normal;font-size:28.22222137px;line-height:1.25;font-family:'Meie Script';-inkscape-font-specification:'Meie Script, Normal';font-variant-ligatures:normal;font-variant-caps:normal;font-variant-numeric:normal;font-feature-settings:normal;text-align:start;letter-spacing:0px;word-spacing:0px;writing-mode:lr-tb;text-anchor:start;fill:#557dd1;fill-opacity:1;stroke:none;stroke-width:0.465;stroke-miterlimit:4;stroke-dasharray:none"
       d="m 109.55061,168.43888 q 0.39963,-0.48231 0.79926,-0.96462 0.41343,-0.48232 0.82683,-0.96463 0.26183,-0.30317 0.60634,-0.71658 0.34451,-0.41341 0.73036,-0.85438 0.39964,-0.45476 0.79927,-0.88195 0.41341,-0.42719 0.7717,-0.7717 0.37207,-0.34451 0.66146,-0.55121 0.28938,-0.22049 0.45475,-0.22049 0.11024,0 0.30317,0.0413 0.19291,0.0413 0.37207,0.12402 0.19292,0.0689 0.31695,0.19293 0.1378,0.11024 0.1378,0.24805 0,0.15158 -0.20671,0.38585 -0.19292,0.23426 -0.48231,0.55121 l -2.28754,2.59071 q -0.0965,0.0965 -0.27561,0.30317 -0.17915,0.19293 -0.41341,0.46854 -0.2205,0.26182 -0.48232,0.56499 -0.26182,0.28939 -0.50987,0.565 l 3.22461,0.19292 -0.60634,0.90951 h -3.5829 q -0.71658,0.81304 -1.44694,1.65364 -0.71658,0.82683 -1.39181,1.61231 -0.67524,0.78548 -1.28158,1.48828 -0.60634,0.7028 -1.08865,1.26779 -0.46853,0.565 -0.81304,0.96463 -0.33073,0.38585 -0.45476,0.53744 -0.49609,0.57877 -0.81304,1.08865 -0.31695,0.49609 -0.31695,0.78548 0,0.35829 0.22049,0.45475 0.23427,0.0965 0.6339,0.0965 0.37207,0 0.9095,-0.0551 0.55122,-0.0689 1.2678,-0.26183 0.73036,-0.19292 1.63986,-0.53743 0.92329,-0.35829 2.05328,-0.93707 l 0.1378,0.33073 q -1.06109,0.6339 -2.10839,1.06109 -1.03353,0.42719 -1.99816,0.68902 -0.95085,0.26183 -1.79145,0.37207 -0.8406,0.11024 -1.48828,0.11024 -0.74414,0 -1.08865,-0.35829 -0.34451,-0.37207 -0.34451,-0.99218 0,-0.39963 0.31695,-0.95085 0.33073,-0.55121 1.06109,-1.44694 0.0827,-0.0965 0.35829,-0.42719 0.28939,-0.34451 0.73036,-0.85438 0.44097,-0.50988 1.00597,-1.17134 0.56499,-0.66146 1.19889,-1.39182 0.64768,-0.74414 1.3367,-1.52962 0.68901,-0.79926 1.37803,-1.59852 h -2.64583 l 1.01975,-1.37804 z"
       inkscape:connector-curvature="0" />
    <path
       style="display:inline;fill:none;stroke:#557dd1;stroke-width:1.66499996;stroke-linecap:round;stroke-linejoin:miter;stroke-miterlimit:4;stroke-dasharray:none;stroke-opacity:1"
       d="M 85.085196,172.8097 71.989982,172.7473"
       id="path1302-0"
       inkscape:connector-curvature="0"
       sodipodi:nodetypes="cc"
       inkscape:export-xdpi="113.75586"
       inkscape:export-ydpi="113.75586" />
    <path
       style="display:inline;fill:none;stroke:#557dd1;stroke-width:1.66499996;stroke-linecap:round;stroke-linejoin:miter;stroke-miterlimit:4;stroke-dasharray:none;stroke-opacity:1"
       d="m 82.756189,175.58816 h -8.538444 v 0 0"
       id="path1304-2"
       inkscape:connector-curvature="0"
       sodipodi:nodetypes="cccc"
       inkscape:export-xdpi="113.75586"
       inkscape:export-ydpi="113.75586" />
    <path
       style="display:inline;fill:none;stroke:#557dd1;stroke-width:1.66499996;stroke-linecap:round;stroke-linejoin:miter;stroke-miterlimit:4;stroke-dasharray:none;stroke-opacity:1"
       d="m 80.55503,178.42909 h -4.265449 v 0 0"
       id="path1304-2-8"
       inkscape:connector-curvature="0"
       sodipodi:nodetypes="cccc"
       inkscape:export-xdpi="113.75586"
       inkscape:export-ydpi="113.75586" />
  </g>
</svg>
